# xmcd
#
# Track frame offsets:
#	150
#	20476
#	38893
#	60922
#	75073
#	94034
#	112218
#	127849
#	179316
#	193007
#	206980
#	221740
#	247405
#	260511
#
# Disc length: 3785 seconds
#
# Revision: 1
# Processed by: cddbd v1.5.2PL0 Copyright (c) Steve Scherf et al.
# Submitted via: audiograbber 1.83.01
#
DISCID=c60ec70e
DTITLE=The Charlie Daniels Band - The Epic Trilogy Vol. 1 [2013] [CD 1)
DYEAR=1974
DGENRE=Southern Rock
TTITLE0=Fire On The Mountain - Caballo Diablo
TTITLE1=Fire On The Mountain - Long Haired Country Boy
TTITLE2=Fire On The Mountain - Trudy
TTITLE3=Fire On The Mountain - Georgia
TTITLE4=Fire On The Mountain - Feeling Free
TTITLE5=Fire On The Mountain - The South's Gonna Do It Again
TTITLE6=Fire On The Mountain - New York City, King Size Rosewood Red
TTITLE7=Fire On The Mountain - No Place To Go [live]
TTITLE8=Fire On The Mountain - Organe Blossom Special [live]
TTITLE9=Nightrider - Texas
TTITLE10=Nightrider - Willie Jones
TTITLE11=Nightrider - Franklin Limestone
TTITLE12=Nightrider - Evil
TTITLE13=Nightrider - Everything Is Kinda Alright
EXTD=
EXTT0=
EXTT1=
EXTT2=
EXTT3=
EXTT4=
EXTT5=
EXTT6=
EXTT7=
EXTT8=
EXTT9=
EXTT10=
EXTT11=
EXTT12=
EXTT13=
PLAYORDER=
